<svg width="3448" height="368" viewBox="0 0 3448 368" fill="none" xmlns="http://www.w3.org/2000/svg">
<path fill-rule="evenodd" clip-rule="evenodd" d="M184 0C82.3796 0 0 82.3796 0 184C0 285.62 82.3796 368 184 368H188.25C289.87 368 372.25 285.62 372.25 184C372.25 82.3796 289.87 0 188.25 0H184ZM128.411 19.8399C130.098 18.9144 153.146 9.29003 155.864 8.27206C159.799 6.88392 170.199 7.80935 181.911 10.7707C188.844 12.529 194.653 14.1948 194.934 14.3799C195.215 14.6575 193.997 15.1202 192.311 15.3978C186.783 16.3233 127.474 21.5056 127.006 21.1355C126.818 20.9504 127.474 20.3026 128.411 19.8399ZM158.112 23.724C117.168 27.6107 115.388 27.8884 114.17 31.6826C113.514 33.8111 130.754 71.3833 133.471 73.5118C133.778 73.765 134.023 74.1056 134.262 74.4386C134.896 75.3226 135.492 76.1528 137.128 75.1495C138.721 75.1495 198.307 26.9629 201.68 22.9836C202.898 21.5955 202.898 21.2253 201.68 20.485C200.931 20.0223 199.994 19.7446 199.432 19.7446C199.106 19.8089 190.026 20.6755 177.076 21.9114L177.069 21.912C171.362 22.4567 164.904 23.073 158.112 23.724ZM296.405 50.1931C295.187 50.1931 234.379 22.5229 233.255 21.4123C232.037 20.3018 236.066 20.3944 252.462 21.8751C270.733 23.5408 272.419 24.3737 286.286 37.8849C296.873 48.2497 298.466 50.1931 296.405 50.1931ZM223.511 25.9478C224.167 28.1688 261.551 93.6889 263.425 95.7248C264.175 96.6503 266.049 97.3906 267.641 97.3906C270.546 97.3906 272.607 95.5397 295.281 73.7923C304.651 64.7231 306.056 61.7617 301.84 59.078C297.811 56.5794 226.322 24.282 224.729 24.282C223.605 24.282 223.23 24.8373 223.511 25.9478ZM45.4932 97.8509C45.6806 96.8329 92.1531 45.7495 100.773 36.958C103.209 34.4593 105.645 33.8115 107.706 35.1996C110.236 36.7729 126.82 73.1421 126.82 76.9363C126.82 78.3244 126.071 80.1753 125.04 81.1007C123.26 82.6739 47.4608 100.442 45.9617 99.5167C45.5869 99.239 45.3059 98.4987 45.4932 97.8509ZM78.0969 46.118C62.1689 55.5574 58.6085 59.4441 51.0192 75.5465C47.8336 82.4872 45.3038 88.4099 45.4912 88.595C45.6786 88.8727 54.9544 79.1557 66.0103 67.1252C88.7781 42.3238 91.6826 39.0848 90.5583 39.0848C90.1835 39.0848 84.5618 42.2312 78.0969 46.118ZM289.994 85.3539C299.287 76.8537 307.527 69.5546 308.389 69.2774C310.21 68.6306 312.509 69.5546 314.042 71.4025C315.383 73.0655 346.905 146.242 346.905 147.627C346.905 150.122 343.36 148.459 324.581 137.464C313.946 131.181 298.808 122.312 291.047 117.784C274.472 108.175 273.131 107.159 273.131 103.556C273.131 101.338 275.814 98.4739 289.994 85.3539ZM322.64 76.8433C322.64 78.4165 348.687 140.142 349.905 141.253C350.373 141.808 350.748 136.348 350.748 126.354C350.748 106.457 350.467 105.809 337.069 91.1874C323.577 76.4731 322.64 75.4552 322.64 76.8433ZM75.4366 98.723L75.4486 98.7202C81.78 97.2648 88.6762 95.6796 94.962 94.2406C109.11 91.0016 121.665 88.2253 122.883 88.2253C124.007 88.1328 125.225 88.7806 125.6 89.6134C126.256 91.4643 123.258 97.4796 95.7115 149.211C79.6898 179.287 75.2861 186.783 73.6933 186.968C72.3816 187.153 71.2573 186.598 70.6951 185.487C67.1347 178.824 40.6191 114.137 40.6191 112.009C40.6191 107.567 43.2426 106.179 56.6409 103.032C60.4919 102.158 67.5224 100.542 75.4366 98.723ZM270.453 121.171C270.734 125.15 273.732 149.396 277.105 175.031C283.477 224.263 283.851 226.022 287.88 223.153C290.504 221.302 341.38 168.09 344.097 164.296C345.971 161.797 346.252 160.687 345.502 158.651C344.567 155.971 344.098 155.69 308.746 134.5L308.587 134.405C300.286 129.446 291.603 124.251 286.022 120.912C283.792 119.578 282.057 118.54 281.04 117.932C280.456 117.573 279.813 117.172 279.142 116.754C275.832 114.69 271.864 112.216 271.162 112.446H270.599L270.035 112.722L269.754 113.275V113.827L270.453 121.171ZM17.0085 200.39C16.6338 199.095 30.3132 133.204 33.4051 121.174C33.7799 119.786 34.6231 118.675 35.3727 118.675C36.7335 118.675 36.9524 119.196 47.5972 144.517L48.6773 147.086L50.3607 151.099C65.7135 187.703 66.8326 190.371 66.155 192.455C66.1018 192.619 66.0374 192.78 65.9679 192.952C65.9512 192.994 65.9343 193.036 65.9171 193.079C65.4486 194.467 64.0432 195.856 62.9189 196.318C61.7008 196.781 51.9566 198.632 41.2754 200.575C20.7563 204.184 17.9455 204.184 17.0085 200.39ZM19.8192 136.44C16.3525 142.733 13.0731 149.859 12.511 152.45C11.4803 156.985 11.9488 178.269 13.1668 183.452L13.729 185.765L14.4786 182.989C16.2588 176.974 26.6589 126.908 26.3778 125.983C26.1904 125.52 23.2859 130.147 19.8192 136.44ZM351.686 201.776C354.309 177.9 356.37 155.32 356.464 151.71C356.558 146.436 357.401 150.878 360.68 173.273C364.99 203.534 365.365 207.791 363.772 213.529C361.617 221.395 347.001 249.528 347.001 245.826C347.001 245.68 347.597 240.105 348.531 231.377L348.534 231.343C349.375 223.484 350.488 213.076 351.686 201.776ZM343.908 172.623C337.162 179.564 295.656 222.966 293.313 225.558C289.94 229.167 289.378 231.203 291.064 233.701C291.814 234.904 301.652 240.549 313.645 246.75C336.413 258.41 338.38 258.965 340.254 254.061C341.378 251.007 349.998 171.513 349.249 170.402C348.312 168.922 346.906 169.569 343.908 172.623ZM82.8773 199.65C83.7205 198.909 99.9297 196.133 127.757 191.969C151.743 188.452 172.168 185.491 173.199 185.398C176.291 185.213 179.289 187.897 179.289 190.766C179.289 192.246 178.727 196.688 177.977 200.668C177.718 202.078 177.143 205.233 176.359 209.538L176.356 209.552C174.877 217.675 172.652 229.888 170.388 242.219C167.015 261.005 163.829 277.385 163.361 278.496C161.581 282.753 158.582 281.18 148.745 271.092C143.685 265.91 126.82 248.79 111.36 233.15C95.9008 217.51 82.8773 203.814 82.4088 202.796C81.7529 201.501 81.9403 200.575 82.8773 199.65ZM186.97 189.652C185.096 191.133 184.159 195.297 179.287 222.32C177.912 229.895 176.462 237.819 175.186 244.795L175.178 244.835L175.171 244.874L175.169 244.887L175.165 244.909L175.161 244.928C173.579 253.573 172.267 260.744 171.698 263.964C168.606 280.622 168.606 280.992 170.293 282.38C171.979 283.768 174.977 282.38 235.785 252.951C273.638 234.535 274.575 233.98 270.452 230.464C269.515 229.723 261.364 225.189 252.369 220.469C247.843 218.082 244.052 216.085 240.698 214.318C228.706 208 222.308 204.629 207.958 196.963C199.713 192.521 192.123 188.727 190.999 188.449C189.781 188.172 188.188 188.634 186.97 189.652ZM19.0684 213.9C19.0684 210.384 22.6288 209.088 41.7424 205.664C52.2362 203.721 61.512 202.147 62.4489 202.055C64.9787 201.87 67.7895 203.628 68.6328 205.942C69.1013 207.052 68.9139 216.491 68.1643 227.411C67.4148 238.054 66.2904 255.452 65.6346 266.002C64.9787 276.551 64.0417 285.528 63.667 285.898C63.2922 286.268 62.0742 285.621 61.0435 284.325C57.6705 280.253 19.0684 215.473 19.0684 213.9ZM74.9127 209.086C73.9758 212.232 69.4785 288.024 70.0406 290.338C71.2587 294.965 74.4443 295.335 95.4318 293.577C100.578 293.115 107.359 292.537 114.143 291.96L114.16 291.958L114.168 291.958C120.961 291.379 127.756 290.801 132.91 290.338C150.993 288.857 154.928 288.024 154.928 286.081C154.928 283.767 79.3164 207.512 77.0677 207.512C76.1308 207.512 75.1938 208.253 74.9127 209.086ZM26.1891 258.321C24.69 254.619 19.0684 230.373 19.0684 227.412C19.0684 225.839 19.4431 226.024 20.8486 228.337C26.4702 237.221 52.8921 281.642 53.4543 283.03C54.2975 285.251 53.1732 284.511 41.8361 275.349C31.7171 267.113 28.4378 263.596 26.1891 258.321ZM285.537 240.831C284.413 241.201 283.288 242.311 282.914 243.237C281.883 245.921 265.486 318.659 265.486 320.602C265.486 323.008 267.454 322.638 271.295 319.677C280.946 312.459 331.447 269.796 332.665 267.946C333.977 266.095 333.977 265.54 332.665 263.689C331.447 261.838 290.315 239.813 288.254 239.998C287.879 239.998 286.661 240.368 285.537 240.831ZM174.79 290.064C175.072 288.49 197.371 277.108 248.153 252.676C261.552 246.199 273.263 240.924 274.2 240.924C275.137 240.831 276.074 241.479 276.449 242.312C277.386 244.718 259.678 322.454 257.804 324.304C256.867 325.23 254.899 325.97 253.494 325.97C251.995 325.97 235.411 319.122 216.485 310.701L214.197 309.687C174.506 292.099 174.423 292.062 174.79 290.064ZM313.645 291.266C280.009 319.213 276.261 322.36 275.98 323.193C275.605 324.118 278.978 323.008 297.155 316.345C309.429 311.902 313.458 309.774 316.737 306.35C319.361 303.481 332.29 279.05 331.822 277.662C331.635 277.107 323.483 283.214 313.645 291.266ZM74.9108 317.641C74.536 317.641 51.6745 291.914 49.0511 288.49C46.334 284.973 60.4818 297.374 64.417 301.909C68.0711 306.166 75.754 317.641 74.9108 317.641ZM147.9 294.226C145.839 294.411 129.63 295.799 111.828 297.28C94.1197 298.853 79.2223 300.427 78.8475 300.797C78.4727 301.167 78.4727 301.907 78.8475 302.462C79.2223 303.11 89.435 309.496 101.522 316.714C107.268 320.19 113.819 324.147 119.866 327.799L119.96 327.856L119.971 327.863C126.602 331.867 132.615 335.5 136.282 337.721C143.216 341.886 149.868 345.402 150.992 345.402C152.117 345.402 153.616 344.477 154.365 343.274C156.333 340.22 160.924 299.686 159.612 297.28C158.582 295.337 154.834 293.486 152.772 293.763C152.227 293.84 150.646 293.981 148.944 294.133L148.943 294.133L148.611 294.163L147.9 294.226ZM163.078 322.731C164.484 310.145 165.983 300.613 166.733 299.318C167.669 298.022 168.981 297.282 170.761 297.282C172.823 297.282 214.61 315.235 244.218 328.746C247.122 330.134 247.591 332.078 245.155 332.818C241.594 333.928 167.857 348.18 165.702 348.18C164.39 348.18 162.797 347.347 162.048 346.052C160.736 344.201 160.83 341.795 163.078 322.731ZM77.1611 310.238C77.1611 311.533 92.9955 336.242 95.7127 339.111C96.9307 340.499 99.5541 342.35 101.334 343.183C104.52 344.663 130.286 348.18 138.531 348.18C141.717 348.18 141.998 347.995 140.873 346.884C138.906 345.034 79.3161 309.312 78.0981 309.312C77.6296 309.312 77.1611 309.682 77.1611 310.238ZM176.85 352.158C177.131 351.881 191.372 348.827 208.518 345.403C241.499 338.74 243.373 338.462 242.623 339.758C242.248 340.22 236.814 343.737 230.443 347.624C215.077 356.971 213.016 357.433 194.089 355.212C179.098 353.546 176.006 352.991 176.85 352.158ZM209.757 26.1258C211.636 24.6164 214.407 25.0867 215.668 27.1289L257.661 95.1398C259.467 98.0656 256.963 101.765 253.566 101.188L149.008 83.4457C145.611 82.8692 144.5 78.5568 147.191 76.3943L209.757 26.1258ZM183.067 173.23C184.256 175.616 187.414 176.18 189.374 174.356L256.209 112.176C258.64 109.914 257.431 105.86 254.162 105.314L147.436 87.5028C144.208 86.9641 141.719 90.3157 143.177 93.2384L183.067 173.23ZM177.501 175.025C178.67 177.453 177.112 180.321 174.417 180.701L85.7316 193.206C82.4743 193.665 80.0911 190.266 81.654 187.39L131.872 94.9732C133.435 92.0969 137.621 92.1796 139.034 95.1145L177.501 175.025ZM194.461 183.576C192.061 182.283 191.619 179.028 193.59 177.156L257.318 116.632C259.683 114.387 263.606 115.773 264.046 119.009L277.931 221.349C278.37 224.585 274.955 226.943 272.075 225.391L194.461 183.576Z" fill="#8D00DA"/>
<path d="M895.084 338.731H847.706L965.857 29H1013.23L895.084 338.731Z" fill="#8D00DA" stroke="#8D00DA" stroke-width="8"/>
<path d="M2375.49 250.977L2426.13 116.754C2430.85 104.52 2430.49 94.9952 2425.04 88.1792C2419.6 81.3632 2411.25 77.9551 2399.99 77.9551H2206.13C2194.87 77.9551 2183.98 81.3632 2173.45 88.1792C2162.92 94.9952 2155.3 104.52 2150.58 116.754L2099.93 250.977C2095.94 261.463 2096.49 270.551 2101.57 278.241C2106.65 285.931 2114.82 289.776 2126.07 289.776H2319.94C2331.2 289.776 2342 286.368 2352.34 279.552C2362.69 272.736 2370.4 263.211 2375.49 250.977ZM2294.35 342.731H2111.37C2080.51 342.731 2058.55 335.565 2045.48 321.234C2032.41 306.903 2030.59 287.504 2040.03 263.036L2099.93 104.695C2104.65 92.461 2111.28 81.4505 2119.81 71.6634C2128.34 61.8764 2138.33 53.4874 2149.76 46.4966C2161.2 39.5059 2173.91 34.1754 2187.88 30.5052C2201.86 26.8351 2216.47 25 2231.72 25H2414.7C2445.56 25 2467.43 32.1655 2480.32 46.4966C2493.21 60.8277 2494.93 80.2271 2485.49 104.695L2425.59 263.036C2420.87 275.27 2414.24 286.28 2405.71 296.067C2397.18 305.855 2387.29 314.243 2376.03 321.234C2364.78 328.225 2352.25 333.555 2338.46 337.226C2324.66 340.896 2309.96 342.731 2294.35 342.731Z" fill="#494AA7"/>
<path d="M780.144 29H832.961L602.717 286.651C602.714 286.655 602.71 286.659 602.706 286.663C595.21 294.92 587.643 302.297 580.006 308.803C572.319 315.351 565.119 320.831 558.405 325.259C551.643 329.719 545.68 333.09 540.503 335.419C535.231 337.79 531.512 338.731 529.111 338.731H523.138C521.058 338.731 518.459 337.841 515.263 335.376C512.069 332.913 508.912 329.429 505.83 324.808L502.502 327.028L505.83 324.808C502.756 320.199 499.985 314.79 497.537 308.554C495.123 302.405 493.388 295.815 492.343 288.774C492.342 288.767 492.341 288.76 492.34 288.753L456.588 29H512.073L547.96 276.827L549.182 285.265L554.89 278.931L780.144 29Z" fill="#8D00DA" stroke="#8D00DA" stroke-width="8"/>
<path d="M1342.96 87.0629H1341.34L1340.18 88.1846L1133.73 287.422L1126.6 294.3H1136.5H1397.32H1402.52L1401.18 289.267L1347.92 90.0298L1347.13 87.0629H1344.05H1342.96ZM1471.18 338.731H1028.84L1293.56 80.8481C1293.56 80.8434 1293.57 80.8387 1293.57 80.8341C1313.29 62.0009 1328.77 48.6209 1340.06 40.5791C1345.73 36.5391 1350.5 33.5909 1354.4 31.6677C1358.39 29.6994 1361.09 29 1362.72 29H1374.8C1376.13 29 1377.72 29.4173 1379.64 30.5459C1381.26 31.4975 1383.33 33.542 1385.75 37.1801C1388.11 40.7217 1390.74 45.8766 1393.63 52.7609C1396.46 59.5297 1399.34 68.2576 1402.24 78.9924C1402.24 78.9945 1402.24 78.9966 1402.24 78.9987L1471.18 338.731Z" fill="#8D00DA" stroke="#8D00DA" stroke-width="8"/>
<path d="M1833.36 289.776H1538.85L1518.6 342.731H1809.82C1843.03 342.731 1869.76 336.264 1890.02 323.331C1910.27 310.398 1925.32 290.824 1935.18 264.609L1947.22 233.675C1957.07 207.459 1956.07 188.235 1944.21 176.001C1932.35 163.767 1910.36 157.65 1878.25 157.65L1858.54 210.081H1863.47C1887.92 210.081 1895.03 223.363 1884.82 249.928C1874.96 276.493 1857.81 289.776 1833.36 289.776ZM1711.84 77.9551H2006.34L2026.6 25H1735.92C1671.33 25 1629.18 51.0406 1609.47 103.122L1597.97 134.056C1579 184.739 1601.81 210.081 1666.4 210.081L1686.11 157.65H1681.18C1657.09 157.65 1649.98 144.368 1659.83 117.803C1670.05 91.2376 1687.38 77.9551 1711.84 77.9551Z" fill="#494AA7"/>
<path d="M3006.97 25L2986.75 77.9551H2600.45L2620.67 25H3006.97ZM2956.15 157.65L2936.48 210.605H2605.37L2555.1 342.731H2499.91L2569.85 157.65H2956.15Z" fill="#494AA7"/>
<path d="M3447.48 25H3068.96L3049.15 77.9551H3211.37L3112.86 342.731H3166.93L3265.45 77.9551H3427.67L3447.48 25Z" fill="#494AA7"/>
</svg>
