<svg width="3448" height="656" viewBox="0 0 3448 656" fill="none" xmlns="http://www.w3.org/2000/svg">
<path fill-rule="evenodd" clip-rule="evenodd" d="M184 0C82.3796 0 0 82.3796 0 184C0 285.62 82.3796 368 184 368H188.25C289.87 368 372.25 285.62 372.25 184C372.25 82.3796 289.87 0 188.25 0H184ZM128.411 19.8399C130.098 18.9144 153.146 9.29003 155.864 8.27206C159.799 6.88392 170.199 7.80935 181.911 10.7707C188.844 12.529 194.653 14.1948 194.934 14.3799C195.215 14.6575 193.997 15.1202 192.311 15.3978C186.783 16.3233 127.474 21.5056 127.006 21.1355C126.818 20.9504 127.474 20.3026 128.411 19.8399ZM158.112 23.724C117.168 27.6107 115.388 27.8884 114.17 31.6826C113.514 33.8111 130.754 71.3833 133.471 73.5118C133.778 73.765 134.023 74.1056 134.262 74.4386C134.896 75.3226 135.492 76.1528 137.128 75.1495C138.721 75.1495 198.307 26.9629 201.68 22.9836C202.898 21.5955 202.898 21.2253 201.68 20.485C200.931 20.0223 199.994 19.7446 199.432 19.7446C199.106 19.8089 190.026 20.6755 177.076 21.9114L177.069 21.912C171.362 22.4567 164.904 23.073 158.112 23.724ZM296.405 50.1931C295.187 50.1931 234.379 22.5229 233.255 21.4123C232.037 20.3018 236.066 20.3944 252.462 21.8751C270.733 23.5408 272.419 24.3737 286.286 37.8849C296.873 48.2497 298.466 50.1931 296.405 50.1931ZM223.511 25.9478C224.167 28.1688 261.551 93.6889 263.425 95.7248C264.175 96.6503 266.049 97.3906 267.641 97.3906C270.546 97.3906 272.607 95.5397 295.281 73.7923C304.651 64.7231 306.056 61.7617 301.84 59.078C297.811 56.5794 226.322 24.282 224.729 24.282C223.605 24.282 223.23 24.8373 223.511 25.9478ZM45.4932 97.8509C45.6806 96.8329 92.1531 45.7495 100.773 36.958C103.209 34.4593 105.645 33.8115 107.706 35.1996C110.236 36.7729 126.82 73.1421 126.82 76.9363C126.82 78.3244 126.071 80.1753 125.04 81.1007C123.26 82.6739 47.4608 100.442 45.9617 99.5167C45.5869 99.239 45.3059 98.4987 45.4932 97.8509ZM78.0969 46.118C62.1689 55.5574 58.6085 59.4441 51.0192 75.5465C47.8336 82.4872 45.3038 88.4099 45.4912 88.595C45.6786 88.8727 54.9544 79.1557 66.0103 67.1252C88.7781 42.3238 91.6826 39.0848 90.5583 39.0848C90.1835 39.0848 84.5618 42.2312 78.0969 46.118ZM289.994 85.3539C299.287 76.8537 307.527 69.5546 308.389 69.2774C310.21 68.6306 312.509 69.5546 314.042 71.4025C315.383 73.0655 346.905 146.242 346.905 147.627C346.905 150.122 343.36 148.459 324.581 137.464C313.946 131.181 298.808 122.312 291.047 117.784C274.472 108.175 273.131 107.159 273.131 103.556C273.131 101.338 275.814 98.4739 289.994 85.3539ZM322.64 76.8433C322.64 78.4165 348.687 140.142 349.905 141.253C350.373 141.808 350.748 136.348 350.748 126.354C350.748 106.457 350.467 105.809 337.069 91.1874C323.577 76.4731 322.64 75.4552 322.64 76.8433ZM75.4366 98.723L75.4486 98.7202C81.78 97.2648 88.6762 95.6796 94.962 94.2406C109.11 91.0016 121.665 88.2253 122.883 88.2253C124.007 88.1328 125.225 88.7806 125.6 89.6134C126.256 91.4643 123.258 97.4796 95.7115 149.211C79.6898 179.287 75.2861 186.783 73.6933 186.968C72.3816 187.153 71.2573 186.598 70.6951 185.487C67.1347 178.824 40.6191 114.137 40.6191 112.009C40.6191 107.567 43.2426 106.179 56.6409 103.032C60.4919 102.158 67.5224 100.542 75.4366 98.723ZM270.453 121.171C270.734 125.15 273.732 149.396 277.105 175.031C283.477 224.263 283.851 226.022 287.88 223.153C290.504 221.302 341.38 168.09 344.097 164.296C345.971 161.797 346.252 160.687 345.502 158.651C344.567 155.971 344.098 155.69 308.746 134.5L308.587 134.405C300.286 129.446 291.603 124.251 286.022 120.912C283.792 119.578 282.057 118.54 281.04 117.932C280.456 117.573 279.813 117.172 279.142 116.754C275.832 114.69 271.864 112.216 271.162 112.446H270.599L270.035 112.722L269.754 113.275V113.827L270.453 121.171ZM17.0085 200.39C16.6338 199.095 30.3132 133.204 33.4051 121.174C33.7799 119.786 34.6231 118.675 35.3727 118.675C36.7335 118.675 36.9524 119.196 47.5972 144.517L48.6773 147.086L50.3607 151.099C65.7135 187.703 66.8326 190.371 66.155 192.455C66.1018 192.619 66.0374 192.78 65.9679 192.952C65.9512 192.994 65.9343 193.036 65.9171 193.079C65.4486 194.467 64.0432 195.856 62.9189 196.318C61.7008 196.781 51.9566 198.632 41.2754 200.575C20.7563 204.184 17.9455 204.184 17.0085 200.39ZM19.8192 136.44C16.3525 142.733 13.0731 149.859 12.511 152.45C11.4803 156.985 11.9488 178.269 13.1668 183.452L13.729 185.765L14.4786 182.989C16.2588 176.974 26.6589 126.908 26.3778 125.983C26.1904 125.52 23.2859 130.147 19.8192 136.44ZM351.686 201.776C354.309 177.9 356.37 155.32 356.464 151.71C356.558 146.436 357.401 150.878 360.68 173.273C364.99 203.534 365.365 207.791 363.772 213.529C361.617 221.395 347.001 249.528 347.001 245.826C347.001 245.68 347.597 240.105 348.531 231.377L348.534 231.343C349.375 223.484 350.488 213.076 351.686 201.776ZM343.908 172.623C337.162 179.564 295.656 222.966 293.313 225.558C289.94 229.167 289.378 231.203 291.064 233.701C291.814 234.904 301.652 240.549 313.645 246.75C336.413 258.41 338.38 258.965 340.254 254.061C341.378 251.007 349.998 171.513 349.249 170.402C348.312 168.922 346.906 169.569 343.908 172.623ZM82.8773 199.65C83.7205 198.909 99.9297 196.133 127.757 191.969C151.743 188.452 172.168 185.491 173.199 185.398C176.291 185.213 179.289 187.897 179.289 190.766C179.289 192.246 178.727 196.688 177.977 200.668C177.718 202.078 177.143 205.233 176.359 209.538L176.356 209.552C174.877 217.675 172.652 229.888 170.388 242.219C167.015 261.005 163.829 277.385 163.361 278.496C161.581 282.753 158.582 281.18 148.745 271.092C143.685 265.91 126.82 248.79 111.36 233.15C95.9008 217.51 82.8773 203.814 82.4088 202.796C81.7529 201.501 81.9403 200.575 82.8773 199.65ZM186.97 189.652C185.096 191.133 184.159 195.297 179.287 222.32C177.912 229.895 176.462 237.819 175.186 244.795L175.178 244.835L175.171 244.874L175.169 244.887L175.165 244.909L175.161 244.928C173.579 253.573 172.267 260.744 171.698 263.964C168.606 280.622 168.606 280.992 170.293 282.38C171.979 283.768 174.977 282.38 235.785 252.951C273.638 234.535 274.575 233.98 270.452 230.464C269.515 229.723 261.364 225.189 252.369 220.469C247.843 218.082 244.052 216.085 240.698 214.318C228.706 208 222.308 204.629 207.958 196.963C199.713 192.521 192.123 188.727 190.999 188.449C189.781 188.172 188.188 188.634 186.97 189.652ZM19.0684 213.9C19.0684 210.384 22.6288 209.088 41.7424 205.664C52.2362 203.721 61.512 202.147 62.4489 202.055C64.9787 201.87 67.7895 203.628 68.6328 205.942C69.1013 207.052 68.9139 216.491 68.1643 227.411C67.4148 238.054 66.2904 255.452 65.6346 266.002C64.9787 276.551 64.0417 285.528 63.667 285.898C63.2922 286.268 62.0742 285.621 61.0435 284.325C57.6705 280.253 19.0684 215.473 19.0684 213.9ZM74.9127 209.086C73.9758 212.232 69.4785 288.024 70.0406 290.338C71.2587 294.965 74.4443 295.335 95.4318 293.577C100.578 293.115 107.359 292.537 114.143 291.96L114.16 291.958L114.168 291.958C120.961 291.379 127.756 290.801 132.91 290.338C150.993 288.857 154.928 288.024 154.928 286.081C154.928 283.767 79.3164 207.512 77.0677 207.512C76.1308 207.512 75.1938 208.253 74.9127 209.086ZM26.1891 258.321C24.69 254.619 19.0684 230.373 19.0684 227.412C19.0684 225.839 19.4431 226.024 20.8486 228.337C26.4702 237.221 52.8921 281.642 53.4543 283.03C54.2975 285.251 53.1732 284.511 41.8361 275.349C31.7171 267.113 28.4378 263.596 26.1891 258.321ZM285.537 240.831C284.413 241.201 283.288 242.311 282.914 243.237C281.883 245.921 265.486 318.659 265.486 320.602C265.486 323.008 267.454 322.638 271.295 319.677C280.946 312.459 331.447 269.796 332.665 267.946C333.977 266.095 333.977 265.54 332.665 263.689C331.447 261.838 290.315 239.813 288.254 239.998C287.879 239.998 286.661 240.368 285.537 240.831ZM174.79 290.064C175.072 288.49 197.371 277.108 248.153 252.676C261.552 246.199 273.263 240.924 274.2 240.924C275.137 240.831 276.074 241.479 276.449 242.312C277.386 244.718 259.678 322.454 257.804 324.304C256.867 325.23 254.899 325.97 253.494 325.97C251.995 325.97 235.411 319.122 216.485 310.701L214.197 309.687C174.506 292.099 174.423 292.062 174.79 290.064ZM313.645 291.266C280.009 319.213 276.261 322.36 275.98 323.193C275.605 324.118 278.978 323.008 297.155 316.345C309.429 311.902 313.458 309.774 316.737 306.35C319.361 303.481 332.29 279.05 331.822 277.662C331.635 277.107 323.483 283.214 313.645 291.266ZM74.9108 317.641C74.536 317.641 51.6745 291.914 49.0511 288.49C46.334 284.973 60.4818 297.374 64.417 301.909C68.0711 306.166 75.754 317.641 74.9108 317.641ZM147.9 294.226C145.839 294.411 129.63 295.799 111.828 297.28C94.1197 298.853 79.2223 300.427 78.8475 300.797C78.4727 301.167 78.4727 301.907 78.8475 302.462C79.2223 303.11 89.435 309.496 101.522 316.714C107.268 320.19 113.819 324.147 119.866 327.799L119.96 327.856L119.971 327.863C126.602 331.867 132.615 335.5 136.282 337.721C143.216 341.886 149.868 345.402 150.992 345.402C152.117 345.402 153.616 344.477 154.365 343.274C156.333 340.22 160.924 299.686 159.612 297.28C158.582 295.337 154.834 293.486 152.772 293.763C152.227 293.84 150.646 293.981 148.944 294.133L148.943 294.133L148.611 294.163L147.9 294.226ZM163.078 322.731C164.484 310.145 165.983 300.613 166.733 299.318C167.669 298.022 168.981 297.282 170.761 297.282C172.823 297.282 214.61 315.235 244.218 328.746C247.122 330.134 247.591 332.078 245.155 332.818C241.594 333.928 167.857 348.18 165.702 348.18C164.39 348.18 162.797 347.347 162.048 346.052C160.736 344.201 160.83 341.795 163.078 322.731ZM77.1611 310.238C77.1611 311.533 92.9955 336.242 95.7127 339.111C96.9307 340.499 99.5541 342.35 101.334 343.183C104.52 344.663 130.286 348.18 138.531 348.18C141.717 348.18 141.998 347.995 140.873 346.884C138.906 345.034 79.3161 309.312 78.0981 309.312C77.6296 309.312 77.1611 309.682 77.1611 310.238ZM176.85 352.158C177.131 351.881 191.372 348.827 208.518 345.403C241.499 338.74 243.373 338.462 242.623 339.758C242.248 340.22 236.814 343.737 230.443 347.624C215.077 356.971 213.016 357.433 194.089 355.212C179.098 353.546 176.006 352.991 176.85 352.158ZM209.757 26.1258C211.636 24.6164 214.407 25.0867 215.668 27.1289L257.661 95.1398C259.467 98.0656 256.963 101.765 253.566 101.188L149.008 83.4457C145.611 82.8692 144.5 78.5568 147.191 76.3943L209.757 26.1258ZM183.067 173.23C184.256 175.616 187.414 176.18 189.374 174.356L256.209 112.176C258.64 109.914 257.431 105.86 254.162 105.314L147.436 87.5028C144.208 86.9641 141.719 90.3157 143.177 93.2384L183.067 173.23ZM177.501 175.025C178.67 177.453 177.112 180.321 174.417 180.701L85.7316 193.206C82.4743 193.665 80.0911 190.266 81.654 187.39L131.872 94.9732C133.435 92.0969 137.621 92.1796 139.034 95.1145L177.501 175.025ZM194.461 183.576C192.061 182.283 191.619 179.028 193.59 177.156L257.318 116.632C259.683 114.387 263.606 115.773 264.046 119.009L277.931 221.349C278.37 224.585 274.955 226.943 272.075 225.391L194.461 183.576Z" fill="#8D00DA"/>
<path d="M895.084 338.731H847.706L965.857 29H1013.23L895.084 338.731Z" fill="#8D00DA" stroke="#8D00DA" stroke-width="8"/>
<path d="M2375.49 250.977L2426.13 116.754C2430.85 104.52 2430.49 94.9952 2425.04 88.1792C2419.6 81.3632 2411.25 77.9551 2399.99 77.9551H2206.13C2194.87 77.9551 2183.98 81.3632 2173.45 88.1792C2162.92 94.9952 2155.3 104.52 2150.58 116.754L2099.93 250.977C2095.94 261.463 2096.49 270.551 2101.57 278.241C2106.65 285.931 2114.82 289.776 2126.07 289.776H2319.94C2331.2 289.776 2342 286.368 2352.34 279.552C2362.69 272.736 2370.4 263.211 2375.49 250.977ZM2294.35 342.731H2111.37C2080.51 342.731 2058.55 335.565 2045.48 321.234C2032.41 306.903 2030.59 287.504 2040.03 263.036L2099.93 104.695C2104.65 92.461 2111.28 81.4505 2119.81 71.6634C2128.34 61.8764 2138.33 53.4874 2149.76 46.4966C2161.2 39.5059 2173.91 34.1754 2187.88 30.5052C2201.86 26.8351 2216.47 25 2231.72 25H2414.7C2445.56 25 2467.43 32.1655 2480.32 46.4966C2493.21 60.8277 2494.93 80.2271 2485.49 104.695L2425.59 263.036C2420.87 275.27 2414.24 286.28 2405.71 296.067C2397.18 305.855 2387.29 314.243 2376.03 321.234C2364.78 328.225 2352.25 333.555 2338.46 337.226C2324.66 340.896 2309.96 342.731 2294.35 342.731Z" fill="#494AA7"/>
<path d="M780.144 29H832.961L602.717 286.651C602.714 286.655 602.71 286.659 602.706 286.663C595.21 294.92 587.643 302.297 580.006 308.803C572.319 315.351 565.119 320.831 558.405 325.259C551.643 329.719 545.68 333.09 540.503 335.419C535.231 337.79 531.512 338.731 529.111 338.731H523.138C521.058 338.731 518.459 337.841 515.263 335.376C512.069 332.913 508.912 329.429 505.83 324.808L502.502 327.028L505.83 324.808C502.756 320.199 499.985 314.79 497.537 308.554C495.123 302.405 493.388 295.815 492.343 288.774C492.342 288.767 492.341 288.76 492.34 288.753L456.588 29H512.073L547.96 276.827L549.182 285.265L554.89 278.931L780.144 29Z" fill="#8D00DA" stroke="#8D00DA" stroke-width="8"/>
<path d="M1342.96 87.0629H1341.34L1340.18 88.1846L1133.73 287.422L1126.6 294.3H1136.5H1397.32H1402.52L1401.18 289.267L1347.92 90.0298L1347.13 87.0629H1344.05H1342.96ZM1471.18 338.731H1028.84L1293.56 80.8481C1293.56 80.8434 1293.57 80.8387 1293.57 80.8341C1313.29 62.0009 1328.77 48.6209 1340.06 40.5791C1345.73 36.5391 1350.5 33.5909 1354.4 31.6677C1358.39 29.6994 1361.09 29 1362.72 29H1374.8C1376.13 29 1377.72 29.4173 1379.64 30.5459C1381.26 31.4975 1383.33 33.542 1385.75 37.1801C1388.11 40.7217 1390.74 45.8766 1393.63 52.7609C1396.46 59.5297 1399.34 68.2576 1402.24 78.9924C1402.24 78.9945 1402.24 78.9966 1402.24 78.9987L1471.18 338.731Z" fill="#8D00DA" stroke="#8D00DA" stroke-width="8"/>
<path d="M1833.36 289.776H1538.85L1518.6 342.731H1809.82C1843.03 342.731 1869.76 336.264 1890.02 323.331C1910.27 310.398 1925.32 290.824 1935.18 264.609L1947.22 233.675C1957.07 207.459 1956.07 188.235 1944.21 176.001C1932.35 163.767 1910.36 157.65 1878.25 157.65L1858.54 210.081H1863.47C1887.92 210.081 1895.03 223.363 1884.82 249.928C1874.96 276.493 1857.81 289.776 1833.36 289.776ZM1711.84 77.9551H2006.34L2026.6 25H1735.92C1671.33 25 1629.18 51.0406 1609.47 103.122L1597.97 134.056C1579 184.739 1601.81 210.081 1666.4 210.081L1686.11 157.65H1681.18C1657.09 157.65 1649.98 144.368 1659.83 117.803C1670.05 91.2376 1687.38 77.9551 1711.84 77.9551Z" fill="#494AA7"/>
<path d="M3006.97 25L2986.75 77.9551H2600.45L2620.67 25H3006.97ZM2956.15 157.65L2936.48 210.605H2605.37L2555.1 342.731H2499.91L2569.85 157.65H2956.15Z" fill="#494AA7"/>
<path d="M3447.48 25H3068.96L3049.15 77.9551H3211.37L3112.86 342.731H3166.93L3265.45 77.9551H3427.67L3447.48 25Z" fill="#494AA7"/>
<path d="M662.641 492V588H642.344V492H662.641ZM759.637 492V588H742.105L700.34 527.578H699.637V588H679.34V492H697.152L738.59 552.375H739.434V492H759.637ZM856.703 492V588H839.172L797.406 527.578H796.703V588H776.406V492H794.219L835.656 552.375H836.5V492H856.703ZM961.691 540C961.691 550.469 959.707 559.375 955.738 566.719C951.801 574.062 946.426 579.672 939.613 583.547C932.832 587.391 925.207 589.312 916.738 589.312C908.207 589.312 900.551 587.375 893.77 583.5C886.988 579.625 881.629 574.016 877.691 566.672C873.754 559.328 871.785 550.437 871.785 540C871.785 529.531 873.754 520.625 877.691 513.281C881.629 505.937 886.988 500.344 893.77 496.5C900.551 492.625 908.207 490.687 916.738 490.687C925.207 490.687 932.832 492.625 939.613 496.5C946.426 500.344 951.801 505.937 955.738 513.281C959.707 520.625 961.691 529.531 961.691 540ZM941.113 540C941.113 533.219 940.098 527.5 938.066 522.844C936.066 518.188 933.238 514.656 929.582 512.25C925.926 509.844 921.645 508.641 916.738 508.641C911.832 508.641 907.551 509.844 903.895 512.25C900.238 514.656 897.395 518.188 895.363 522.844C893.363 527.5 892.363 533.219 892.363 540C892.363 546.781 893.363 552.5 895.363 557.156C897.395 561.812 900.238 565.344 903.895 567.75C907.551 570.156 911.832 571.359 916.738 571.359C921.645 571.359 925.926 570.156 929.582 567.75C933.238 565.344 936.066 561.812 938.066 557.156C940.098 552.5 941.113 546.781 941.113 540ZM988.656 492L1011.86 564.937H1012.75L1036 492H1058.5L1025.41 588H999.25L966.109 492H988.656ZM1073.84 588H1052.09L1085.23 492H1111.39L1144.48 588H1122.73L1098.68 513.937H1097.93L1073.84 588ZM1072.48 550.266H1123.86V566.109H1072.48V550.266ZM1140.65 508.734V492H1219.49V508.734H1190.1V588H1170.04V508.734H1140.65ZM1252.77 492V588H1232.48V492H1252.77ZM1349.77 492V588H1332.24L1290.47 527.578H1289.77V588H1269.47V492H1287.29L1328.72 552.375H1329.57V492H1349.77ZM1430.2 523.031C1429.54 520.75 1428.62 518.734 1427.43 516.984C1426.24 515.203 1424.79 513.703 1423.07 512.484C1421.38 511.234 1419.45 510.281 1417.26 509.625C1415.1 508.969 1412.71 508.641 1410.09 508.641C1405.18 508.641 1400.87 509.859 1397.15 512.297C1393.46 514.734 1390.59 518.281 1388.52 522.937C1386.46 527.562 1385.43 533.219 1385.43 539.906C1385.43 546.594 1386.45 552.281 1388.48 556.969C1390.51 561.656 1393.38 565.234 1397.1 567.703C1400.82 570.141 1405.21 571.359 1410.27 571.359C1414.87 571.359 1418.79 570.547 1422.04 568.922C1425.32 567.266 1427.82 564.937 1429.54 561.937C1431.29 558.937 1432.16 555.391 1432.16 551.297L1436.29 551.906H1411.54V536.625H1451.71V548.719C1451.71 557.156 1449.93 564.406 1446.37 570.469C1442.8 576.5 1437.9 581.156 1431.65 584.437C1425.4 587.687 1418.24 589.312 1410.18 589.312C1401.18 589.312 1393.27 587.328 1386.46 583.359C1379.65 579.359 1374.34 573.687 1370.52 566.344C1366.74 558.969 1364.85 550.219 1364.85 540.094C1364.85 532.312 1365.98 525.375 1368.23 519.281C1370.51 513.156 1373.7 507.969 1377.79 503.719C1381.88 499.469 1386.65 496.234 1392.09 494.016C1397.52 491.797 1403.41 490.687 1409.76 490.687C1415.2 490.687 1420.26 491.484 1424.95 493.078C1429.63 494.641 1433.79 496.859 1437.41 499.734C1441.07 502.609 1444.05 506.031 1446.37 510C1448.68 513.937 1450.16 518.281 1450.82 523.031H1430.2ZM1493.85 508.734V492H1572.7V508.734H1543.3V588H1523.24V508.734H1493.85ZM1669.52 540C1669.52 550.469 1667.53 559.375 1663.56 566.719C1659.63 574.062 1654.25 579.672 1647.44 583.547C1640.66 587.391 1633.03 589.312 1624.56 589.312C1616.03 589.312 1608.38 587.375 1601.59 583.5C1594.81 579.625 1589.45 574.016 1585.52 566.672C1581.58 559.328 1579.61 550.437 1579.61 540C1579.61 529.531 1581.58 520.625 1585.52 513.281C1589.45 505.937 1594.81 500.344 1601.59 496.5C1608.38 492.625 1616.03 490.687 1624.56 490.687C1633.03 490.687 1640.66 492.625 1647.44 496.5C1654.25 500.344 1659.63 505.937 1663.56 513.281C1667.53 520.625 1669.52 529.531 1669.52 540ZM1648.94 540C1648.94 533.219 1647.92 527.5 1645.89 522.844C1643.89 518.188 1641.06 514.656 1637.41 512.25C1633.75 509.844 1629.47 508.641 1624.56 508.641C1619.66 508.641 1615.38 509.844 1611.72 512.25C1608.06 514.656 1605.22 518.188 1603.19 522.844C1601.19 527.5 1600.19 533.219 1600.19 540C1600.19 546.781 1601.19 552.5 1603.19 557.156C1605.22 561.812 1608.06 565.344 1611.72 567.75C1615.38 570.156 1619.66 571.359 1624.56 571.359C1629.47 571.359 1633.75 570.156 1637.41 567.75C1641.06 565.344 1643.89 561.812 1645.89 557.156C1647.92 552.5 1648.94 546.781 1648.94 540ZM1718.58 588H1684.55V492H1718.86C1728.52 492 1736.83 493.922 1743.8 497.766C1750.77 501.578 1756.13 507.062 1759.88 514.219C1763.66 521.375 1765.55 529.937 1765.55 539.906C1765.55 549.906 1763.66 558.5 1759.88 565.687C1756.13 572.875 1750.74 578.391 1743.71 582.234C1736.71 586.078 1728.33 588 1718.58 588ZM1704.85 570.609H1717.74C1723.74 570.609 1728.79 569.547 1732.88 567.422C1737 565.266 1740.1 561.937 1742.16 557.437C1744.25 552.906 1745.3 547.063 1745.3 539.906C1745.3 532.812 1744.25 527.016 1742.16 522.516C1740.1 518.016 1737.02 514.703 1732.93 512.578C1728.83 510.453 1723.79 509.391 1717.79 509.391H1704.85V570.609ZM1791.72 588H1769.97L1803.11 492H1829.27L1862.36 588H1840.61L1816.56 513.937H1815.81L1791.72 588ZM1790.36 550.266H1841.73V566.109H1790.36V550.266ZM1858.49 492H1881.23L1903.12 533.344H1904.05L1925.95 492H1948.68L1913.66 554.062V588H1893.51V554.062L1858.49 492ZM1962.04 589.219C1958.95 589.219 1956.29 588.125 1954.07 585.938C1951.88 583.719 1950.79 581.062 1950.79 577.969C1950.79 574.906 1951.88 572.281 1954.07 570.094C1956.29 567.906 1958.95 566.812 1962.04 566.812C1965.04 566.812 1967.66 567.906 1969.91 570.094C1972.16 572.281 1973.29 574.906 1973.29 577.969C1973.29 580.031 1972.76 581.922 1971.7 583.641C1970.66 585.328 1969.3 586.687 1967.62 587.719C1965.93 588.719 1964.07 589.219 1962.04 589.219Z" fill="#776793"/>
<path d="M2113.05 525.609H2092.52C2092.14 522.953 2091.38 520.594 2090.22 518.531C2089.06 516.437 2087.58 514.656 2085.77 513.187C2083.95 511.719 2081.86 510.594 2079.48 509.812C2077.14 509.031 2074.59 508.641 2071.84 508.641C2066.88 508.641 2062.55 509.875 2058.86 512.344C2055.17 514.781 2052.31 518.344 2050.28 523.031C2048.25 527.687 2047.23 533.344 2047.23 540C2047.23 546.844 2048.25 552.594 2050.28 557.25C2052.34 561.906 2055.22 565.422 2058.91 567.797C2062.59 570.172 2066.86 571.359 2071.7 571.359C2074.42 571.359 2076.94 571 2079.25 570.281C2081.59 569.562 2083.67 568.516 2085.48 567.141C2087.3 565.734 2088.8 564.031 2089.98 562.031C2091.2 560.031 2092.05 557.75 2092.52 555.187L2113.05 555.281C2112.52 559.687 2111.19 563.938 2109.06 568.031C2106.97 572.094 2104.14 575.734 2100.58 578.953C2097.05 582.141 2092.83 584.672 2087.92 586.547C2083.05 588.391 2077.53 589.312 2071.38 589.312C2062.81 589.312 2055.16 587.375 2048.41 583.5C2041.69 579.625 2036.38 574.016 2032.47 566.672C2028.59 559.328 2026.66 550.437 2026.66 540C2026.66 529.531 2028.63 520.625 2032.56 513.281C2036.5 505.937 2041.84 500.344 2048.59 496.5C2055.34 492.625 2062.94 490.687 2071.38 490.687C2076.94 490.687 2082.09 491.469 2086.84 493.031C2091.63 494.594 2095.86 496.875 2099.55 499.875C2103.23 502.844 2106.23 506.484 2108.55 510.797C2110.89 515.109 2112.39 520.047 2113.05 525.609ZM2215.82 540C2215.82 550.469 2213.84 559.375 2209.87 566.719C2205.93 574.062 2200.55 579.672 2193.74 583.547C2186.96 587.391 2179.34 589.312 2170.87 589.312C2162.34 589.312 2154.68 587.375 2147.9 583.5C2141.12 579.625 2135.76 574.016 2131.82 566.672C2127.88 559.328 2125.91 550.437 2125.91 540C2125.91 529.531 2127.88 520.625 2131.82 513.281C2135.76 505.937 2141.12 500.344 2147.9 496.5C2154.68 492.625 2162.34 490.687 2170.87 490.687C2179.34 490.687 2186.96 492.625 2193.74 496.5C2200.55 500.344 2205.93 505.937 2209.87 513.281C2213.84 520.625 2215.82 529.531 2215.82 540ZM2195.24 540C2195.24 533.219 2194.23 527.5 2192.2 522.844C2190.2 518.188 2187.37 514.656 2183.71 512.25C2180.05 509.844 2175.77 508.641 2170.87 508.641C2165.96 508.641 2161.68 509.844 2158.02 512.25C2154.37 514.656 2151.52 518.188 2149.49 522.844C2147.49 527.5 2146.49 533.219 2146.49 540C2146.49 546.781 2147.49 552.5 2149.49 557.156C2151.52 561.812 2154.37 565.344 2158.02 567.75C2161.68 570.156 2165.96 571.359 2170.87 571.359C2175.77 571.359 2180.05 570.156 2183.71 567.75C2187.37 565.344 2190.2 561.812 2192.2 557.156C2194.23 552.5 2195.24 546.781 2195.24 540ZM2264.89 588H2230.86V492H2265.17C2274.82 492 2283.14 493.922 2290.11 497.766C2297.07 501.578 2302.43 507.062 2306.18 514.219C2309.96 521.375 2311.86 529.937 2311.86 539.906C2311.86 549.906 2309.96 558.5 2306.18 565.687C2302.43 572.875 2297.04 578.391 2290.01 582.234C2283.01 586.078 2274.64 588 2264.89 588ZM2251.15 570.609H2264.04C2270.04 570.609 2275.09 569.547 2279.18 567.422C2283.31 565.266 2286.4 561.937 2288.46 557.437C2290.56 552.906 2291.61 547.063 2291.61 539.906C2291.61 532.812 2290.56 527.016 2288.46 522.516C2286.4 518.016 2283.32 514.703 2279.23 512.578C2275.14 510.453 2270.09 509.391 2264.09 509.391H2251.15V570.609ZM2347.19 492V588H2326.89V492H2347.19ZM2444.18 492V588H2426.65L2384.89 527.578H2384.18V588H2363.89V492H2381.7L2423.14 552.375H2423.98V492H2444.18ZM2524.61 523.031C2523.95 520.75 2523.03 518.734 2521.84 516.984C2520.66 515.203 2519.2 513.703 2517.48 512.484C2515.8 511.234 2513.86 510.281 2511.67 509.625C2509.52 508.969 2507.13 508.641 2504.5 508.641C2499.59 508.641 2495.28 509.859 2491.56 512.297C2487.88 514.734 2485 518.281 2482.94 522.937C2480.88 527.562 2479.84 533.219 2479.84 539.906C2479.84 546.594 2480.86 552.281 2482.89 556.969C2484.92 561.656 2487.8 565.234 2491.52 567.703C2495.23 570.141 2499.63 571.359 2504.69 571.359C2509.28 571.359 2513.2 570.547 2516.45 568.922C2519.73 567.266 2522.23 564.937 2523.95 561.937C2525.7 558.937 2526.58 555.391 2526.58 551.297L2530.7 551.906H2505.95V536.625H2546.13V548.719C2546.13 557.156 2544.34 564.406 2540.78 570.469C2537.22 576.5 2532.31 581.156 2526.06 584.437C2519.81 587.687 2512.66 589.312 2504.59 589.312C2495.59 589.312 2487.69 587.328 2480.88 583.359C2474.06 579.359 2468.75 573.687 2464.94 566.344C2461.16 558.969 2459.27 550.219 2459.27 540.094C2459.27 532.312 2460.39 525.375 2462.64 519.281C2464.92 513.156 2468.11 507.969 2472.2 503.719C2476.3 499.469 2481.06 496.234 2486.5 494.016C2491.94 491.797 2497.83 490.687 2504.17 490.687C2509.61 490.687 2514.67 491.484 2519.36 493.078C2524.05 494.641 2528.2 496.859 2531.83 499.734C2535.48 502.609 2538.47 506.031 2540.78 510C2543.09 513.937 2544.58 518.281 2545.23 523.031H2524.61ZM2588.27 508.734V492H2667.11V508.734H2637.72V588H2617.66V508.734H2588.27ZM2680.09 588V492H2700.39V531.609H2741.59V492H2761.84V588H2741.59V548.344H2700.39V588H2680.09ZM2778.58 588V492H2843.27V508.734H2798.88V531.609H2839.94V548.344H2798.88V571.266H2843.45V588H2778.58ZM2889.95 588V492H2953.52V508.734H2910.25V531.609H2949.3V548.344H2910.25V588H2889.95ZM3026.46 492H3046.76V554.344C3046.76 561.344 3045.09 567.469 3041.75 572.719C3038.43 577.969 3033.79 582.062 3027.82 585C3021.86 587.906 3014.9 589.359 3006.96 589.359C2999 589.359 2992.03 587.906 2986.06 585C2980.09 582.062 2975.45 577.969 2972.14 572.719C2968.82 567.469 2967.17 561.344 2967.17 554.344V492H2987.46V552.609C2987.46 556.266 2988.26 559.516 2989.86 562.359C2991.48 565.203 2993.76 567.437 2996.7 569.063C2999.64 570.688 3003.06 571.5 3006.96 571.5C3010.9 571.5 3014.32 570.688 3017.23 569.063C3020.17 567.437 3022.43 565.203 3024.03 562.359C3025.65 559.516 3026.46 556.266 3026.46 552.609V492ZM3059.8 508.734V492H3138.65V508.734H3109.26V588H3089.2V508.734H3059.8ZM3210.93 492H3231.23V554.344C3231.23 561.344 3229.55 567.469 3226.21 572.719C3222.9 577.969 3218.26 582.062 3212.29 585C3206.32 587.906 3199.37 589.359 3191.43 589.359C3183.46 589.359 3176.49 587.906 3170.52 585C3164.55 582.062 3159.91 577.969 3156.6 572.719C3153.29 567.469 3151.63 561.344 3151.63 554.344V492H3171.93V552.609C3171.93 556.266 3172.73 559.516 3174.32 562.359C3175.95 565.203 3178.23 567.437 3181.16 569.063C3184.1 570.688 3187.52 571.5 3191.43 571.5C3195.37 571.5 3198.79 570.688 3201.7 569.063C3204.63 567.437 3206.9 565.203 3208.49 562.359C3210.12 559.516 3210.93 556.266 3210.93 552.609V492ZM3247.93 588V492H3285.8C3293.05 492 3299.24 493.297 3304.36 495.891C3309.52 498.453 3313.44 502.094 3316.13 506.813C3318.85 511.5 3320.21 517.016 3320.21 523.359C3320.21 529.734 3318.83 535.219 3316.08 539.812C3313.33 544.375 3309.35 547.875 3304.13 550.312C3298.94 552.75 3292.66 553.969 3285.29 553.969H3259.93V537.656H3282C3285.88 537.656 3289.1 537.125 3291.66 536.063C3294.22 535 3296.13 533.406 3297.38 531.281C3298.66 529.156 3299.3 526.516 3299.3 523.359C3299.3 520.172 3298.66 517.484 3297.38 515.297C3296.13 513.109 3294.21 511.453 3291.61 510.328C3289.05 509.172 3285.82 508.594 3281.91 508.594H3268.22V588H3247.93ZM3299.77 544.313L3323.63 588H3301.22L3277.88 544.313H3299.77ZM3334.55 588V492H3399.24V508.734H3354.85V531.609H3395.91V548.344H3354.85V571.266H3399.43V588H3334.55ZM3426.67 589.219C3423.58 589.219 3420.92 588.125 3418.7 585.938C3416.52 583.719 3415.42 581.062 3415.42 577.969C3415.42 574.906 3416.52 572.281 3418.7 570.094C3420.92 567.906 3423.58 566.812 3426.67 566.812C3429.67 566.812 3432.3 567.906 3434.55 570.094C3436.8 572.281 3437.92 574.906 3437.92 577.969C3437.92 580.031 3437.39 581.922 3436.33 583.641C3435.3 585.328 3433.94 586.687 3432.25 587.719C3430.56 588.719 3428.7 589.219 3426.67 589.219Z" fill="#494AA7"/>
</svg>
